<?xml version="1.0" encoding="UTF-8"?>
<svg version="1.1" xmlns="http://www.w3.org/2000/svg" width="32" height="32">
<path d="M0 0 C0 0.66 0 1.32 0 2 C0.56976563 1.67773438 1.13953125 1.35546875 1.7265625 1.0234375 C5.44683882 -0.65132607 8.99966367 -0.56850534 13 0 C17.09053684 2.08245512 19.30555157 3.76001031 21 8 C21.265625 10.21875 21.265625 10.21875 21.25 12.5 C21.25773437 13.62921875 21.25773437 13.62921875 21.265625 14.78125 C20.97250404 17.2296721 20.21816769 18.87304054 19 21 C19.66 21 20.32 21 21 21 C21.25360179 23.95868757 21.02077738 25.94286221 20 28.75 C17.72585495 31.30841318 17.07464883 31.40256625 13.8125 31.8125 C12.554375 31.874375 11.29625 31.93625 10 32 C10 31.34 10 30.68 10 30 C9.01 30.33 8.02 30.66 7 31 C5.68 29.02 4.36 27.04 3 25 C-0.28978463 25.78777459 -0.28978463 25.78777459 -2.375 29.0625 C-5 32 -5 32 -7.75 32.4375 C-10 32 -10 32 -11 31 C-11.5 28.8125 -11.5 28.8125 -11 26 C-8.8677392 23.72914225 -6.49763782 21.85411379 -4 20 C-4.71563266 17.9837767 -4.71563266 17.9837767 -6 16 C-8.05000871 15.19471111 -8.05000871 15.19471111 -10 15 C-11.43755697 7.05013674 -11.43755697 7.05013674 -9.75 3 C-6.89225237 -0.26599729 -4.09808834 -0.11075914 0 0 Z " fill="#536C80" transform="translate(11,0)"/>
<path d="M0 0 C4.45339922 0.3711166 5.71802269 1.08623072 8.75 4.3125 C9.28425914 7.08710546 9.53891952 9.29048346 9.5625 12.0625 C9.58763672 12.75988281 9.61277344 13.45726562 9.63867188 14.17578125 C9.69728962 15.88741949 9.72657053 17.6000186 9.75 19.3125 C10.41 19.3125 11.07 19.3125 11.75 19.3125 C11.75 19.9725 11.75 20.6325 11.75 21.3125 C11.09 21.3125 10.43 21.3125 9.75 21.3125 C9.75 22.9625 9.75 24.6125 9.75 26.3125 C8.1 26.3125 6.45 26.3125 4.75 26.3125 C4.75 26.9725 4.75 27.6325 4.75 28.3125 C4.09 28.3125 3.43 28.3125 2.75 28.3125 C2.42 27.6525 2.09 26.9925 1.75 26.3125 C0.76 26.3125 -0.23 26.3125 -1.25 26.3125 C-1.91 24.3325 -2.57 22.3525 -3.25 20.3125 C-2.26 20.3125 -1.27 20.3125 -0.25 20.3125 C0.08 21.6325 0.41 22.9525 0.75 24.3125 C3.16645782 24.47937448 3.16645782 24.47937448 5.75 24.3125 C6.41 23.6525 7.07 22.9925 7.75 22.3125 C7.42958603 19.70969432 7.42958603 19.70969432 6.75 17.3125 C6.21375 17.6425 5.6775 17.9725 5.125 18.3125 C2.06258861 19.60193638 0.05060561 19.71665579 -3.25 19.3125 C-6.31893364 17.74393392 -7.83955338 16.52796624 -8.95703125 13.21875 C-9.39326329 10.77258905 -9.56660466 8.77937801 -9.25 6.3125 C-6.875 3.3125 -6.875 3.3125 -4.25 1.3125 C-3.25 0.3125 -3.25 0.3125 0 0 Z " fill="#F4F7F9" transform="translate(19.25,2.6875)"/>
<path d="M0 0 C0 0.66 0 1.32 0 2 C0.56976563 1.67773438 1.13953125 1.35546875 1.7265625 1.0234375 C5.44683882 -0.65132607 8.99966367 -0.56850534 13 0 C17.09053684 2.08245512 19.30555157 3.76001031 21 8 C21.265625 10.21875 21.265625 10.21875 21.25 12.5 C21.25773437 13.62921875 21.25773437 13.62921875 21.265625 14.78125 C20.97250404 17.2296721 20.21816769 18.87304054 19 21 C19.66 21 20.32 21 21 21 C21.25360179 23.95868757 21.02077738 25.94286221 20 28.75 C17.72585495 31.30841318 17.07464883 31.40256625 13.8125 31.8125 C12.554375 31.874375 11.29625 31.93625 10 32 C10 31.34 10 30.68 10 30 C9.01 30.33 8.02 30.66 7 31 C5.68 29.02 4.36 27.04 3 25 C3.99 24.67 4.98 24.34 6 24 C6.268125 24.639375 6.53625 25.27875 6.8125 25.9375 C7.88667752 28.33131686 7.88667752 28.33131686 11 29 C11 29.66 11 30.32 11 31 C11.66 31 12.32 31 13 31 C13 30.34 13 29.68 13 29 C13.99 28.67 14.98 28.34 16 28 C16.66 28.33 17.32 28.66 18 29 C18 27.35 18 25.7 18 24 C18.66 24 19.32 24 20 24 C20 23.34 20 22.68 20 22 C19.34 22 18.68 22 18 22 C17.90203125 20.95199219 17.8040625 19.90398438 17.703125 18.82421875 C17.55302873 17.44520927 17.40193478 16.06630813 17.25 14.6875 C17.188125 13.99720703 17.12625 13.30691406 17.0625 12.59570312 C16.69105674 9.392005 16.39079384 7.41465283 14.14453125 5.03125 C11.04983626 3.54309066 8.38692757 3.8152585 5 4 C2 4 2 4 -1 3 C-1 2.34 -1 1.68 -1 1 C-1.66 1 -2.32 1 -3 1 C-3 1.66 -3 2.32 -3 3 C-4.65 3 -6.3 3 -8 3 C-7.67 3.99 -7.34 4.98 -7 6 C-7.33 6.66 -7.66 7.32 -8 8 C-8.66 8 -9.32 8 -10 8 C-10 8.66 -10 9.32 -10 10 C-9.01 10.33 -8.02 10.66 -7 11 C-7 11.66 -7 12.32 -7 13 C-5.02 13.99 -3.04 14.98 -1 16 C-1.99 16.66 -2.98 17.32 -4 18 C-4.66 17.34 -5.32 16.68 -6 16 C-8.06874034 15.3574765 -8.06874034 15.3574765 -10 15 C-11.43755697 7.05013674 -11.43755697 7.05013674 -9.75 3 C-6.89225237 -0.26599729 -4.09808834 -0.11075914 0 0 Z " fill="#214260" transform="translate(11,0)"/>
<path d="M0 0 C4.45339922 0.3711166 5.71802269 1.08623072 8.75 4.3125 C9.28425914 7.08710546 9.53891952 9.29048346 9.5625 12.0625 C9.58763672 12.75988281 9.61277344 13.45726562 9.63867188 14.17578125 C9.69728962 15.88741949 9.72657053 17.6000186 9.75 19.3125 C10.41 19.3125 11.07 19.3125 11.75 19.3125 C11.75 19.9725 11.75 20.6325 11.75 21.3125 C11.09 21.3125 10.43 21.3125 9.75 21.3125 C9.75 22.9625 9.75 24.6125 9.75 26.3125 C8.1 26.3125 6.45 26.3125 4.75 26.3125 C4.75 26.9725 4.75 27.6325 4.75 28.3125 C4.09 28.3125 3.43 28.3125 2.75 28.3125 C2.42 27.6525 2.09 26.9925 1.75 26.3125 C0.76 26.3125 -0.23 26.3125 -1.25 26.3125 C-1.91 24.3325 -2.57 22.3525 -3.25 20.3125 C-2.26 20.3125 -1.27 20.3125 -0.25 20.3125 C0.08 21.6325 0.41 22.9525 0.75 24.3125 C3.16645782 24.47937448 3.16645782 24.47937448 5.75 24.3125 C6.41 23.6525 7.07 22.9925 7.75 22.3125 C7.42958603 19.70969432 7.42958603 19.70969432 6.75 17.3125 C6.21375 17.6425 5.6775 17.9725 5.125 18.3125 C2.06258861 19.60193638 0.05060561 19.71665579 -3.25 19.3125 C-6.31893364 17.74393392 -7.83955338 16.52796624 -8.95703125 13.21875 C-9.39326329 10.77258905 -9.56660466 8.77937801 -9.25 6.3125 C-6.875 3.3125 -6.875 3.3125 -4.25 1.3125 C-3.25 0.3125 -3.25 0.3125 0 0 Z M-5.6875 3.3125 C-7.71846341 5.91213316 -7.81420828 8.12531951 -7.62890625 11.37109375 C-7.33060418 13.51519215 -7.33060418 13.51519215 -5.6875 15.8125 C-2.30111671 17.89642818 -0.15614682 17.87052097 3.75 17.3125 C6.35314994 15.9594872 6.35314994 15.9594872 7.75 13.3125 C8.32853498 10.34825377 8.14353376 8.41157833 7.75 5.3125 C6.30851025 3.12702316 6.30851025 3.12702316 3.75 2.3125 C0.15965387 1.92782006 -2.33597404 1.93751499 -5.6875 3.3125 Z " fill="#3BA8DF" transform="translate(19.25,2.6875)"/>
<path d="M0 0 C3.81884318 -0.42431591 6.12405448 -0.5390434 9.4375 1.5 C9.953125 1.995 10.46875 2.49 11 3 C10.67 5.31 10.34 7.62 10 10 C9.34 9.67 8.68 9.34 8 9 C8 8.34 8 7.68 8 7 C6.906875 6.855625 5.81375 6.71125 4.6875 6.5625 C1 6 1 6 -2 5 C-2.33 5.66 -2.66 6.32 -3 7 C-2.38722388 4.03824877 -1.74627478 2.61941217 0 0 Z " fill="#F7F9FA" transform="translate(16,5)"/>
<path d="M0 0 C0 0.66 0 1.32 0 2 C0.99 1.67 1.98 1.34 3 1 C3 1.66 3 2.32 3 3 C1.68 3 0.36 3 -1 3 C-1 2.34 -1 1.68 -1 1 C-1.66 1 -2.32 1 -3 1 C-3 1.66 -3 2.32 -3 3 C-4.65 3 -6.3 3 -8 3 C-7.67 3.99 -7.34 4.98 -7 6 C-7.33 6.66 -7.66 7.32 -8 8 C-8.66 8 -9.32 8 -10 8 C-10 8.66 -10 9.32 -10 10 C-9.01 10.33 -8.02 10.66 -7 11 C-7 11.66 -7 12.32 -7 13 C-5.02 13.99 -3.04 14.98 -1 16 C-1.99 16.66 -2.98 17.32 -4 18 C-4.66 17.34 -5.32 16.68 -6 16 C-8.06874034 15.3574765 -8.06874034 15.3574765 -10 15 C-11.43755697 7.05013674 -11.43755697 7.05013674 -9.75 3 C-6.89225237 -0.26599729 -4.09808834 -0.11075914 0 0 Z " fill="#1C334E" transform="translate(11,0)"/>
<path d="M0 0 C0.87591797 0.33064453 0.87591797 0.33064453 1.76953125 0.66796875 C0.81320126 1.96111936 -0.14560726 3.25243728 -1.10546875 4.54296875 C-1.63914062 5.26226563 -2.1728125 5.9815625 -2.72265625 6.72265625 C-4.23046875 8.66796875 -4.23046875 8.66796875 -6.23046875 10.66796875 C-8.35546875 10.29296875 -8.35546875 10.29296875 -10.23046875 9.66796875 C-9.66253553 6.19221747 -8.5687863 4.64300509 -5.91796875 2.35546875 C-5.32371094 1.82308594 -4.72945313 1.29070313 -4.1171875 0.7421875 C-2.23046875 -0.33203125 -2.23046875 -0.33203125 0 0 Z " fill="#D5B55D" transform="translate(11.23046875,20.33203125)"/>
<path d="M0 0 C4.77003402 -0.38160272 8.09465992 -0.4609004 12.4375 1.75 C15.48175786 4.4230069 16.85821452 6.28723141 17.1953125 10.359375 C17.17210938 11.14828125 17.14890625 11.9371875 17.125 12.75 C17.10695313 13.54921875 17.08890625 14.3484375 17.0703125 15.171875 C17.04710938 15.77515625 17.02390625 16.3784375 17 17 C16.34 17.33 15.68 17.66 15 18 C14.98582031 17.33613281 14.97164062 16.67226563 14.95703125 15.98828125 C14.72048143 11.6089129 14.44024314 8.69586818 12.0625 4.9375 C7.82515065 2.25672796 3.93485815 2.10540474 -1 2 C-0.67 1.34 -0.34 0.68 0 0 Z " fill="#E5E6E8" transform="translate(15,0)"/>
<path d="M0 0 C0.66 0.33 1.32 0.66 2 1 C1.4225 1.47050781 0.845 1.94101562 0.25 2.42578125 C-0.4925 3.04839844 -1.235 3.67101562 -2 4.3125 C-2.7425 4.92738281 -3.485 5.54226562 -4.25 6.17578125 C-6.34613723 7.93950063 -6.34613723 7.93950063 -6 11 C-2.40094092 10.44449305 -1.00090201 9.25112752 1.25 6.4375 C2.03117188 5.47650391 2.03117188 5.47650391 2.828125 4.49609375 C3.21484375 4.00238281 3.6015625 3.50867188 4 3 C4 7.09891152 2.30778038 8.56721995 -0.3359375 11.54296875 C-2 13 -2 13 -4.8125 13.5 C-7 13 -7 13 -8 12 C-8.3125 9.67578125 -8.3125 9.67578125 -8 7 C-6.25 4.98046875 -6.25 4.98046875 -4 3.1875 C-3.2575 2.58292969 -2.515 1.97835938 -1.75 1.35546875 C-1.1725 0.90816406 -0.595 0.46085937 0 0 Z " fill="#172F50" transform="translate(8,19)"/>
<path d="M0 0 C0.66 0 1.32 0 2 0 C2 0.66 2 1.32 2 2 C3.32 2.33 4.64 2.66 6 3 C3.3260876 3.89130413 0.76276177 4.47731534 -2 5 C-3.01111093 8.04913228 -3.01111093 8.04913228 -2 11 C-1.01 11.33 -0.02 11.66 1 12 C0.67 12.99 0.34 13.98 0 15 C-2.475 14.01 -2.475 14.01 -5 13 C-5 12.01 -5 11.02 -5 10 C-5.66 9.67 -6.32 9.34 -7 9 C-7 8.34 -7 7.68 -7 7 C-6.34 7 -5.68 7 -5 7 C-5 5.35 -5 3.7 -5 2 C-3.35 2 -1.7 2 0 2 C0 1.34 0 0.68 0 0 Z " fill="#E2E4E7" transform="translate(8,1)"/>
<path d="M0 0 C1.32 0.66 2.64 1.32 4 2 C4 2.66 4 3.32 4 4 C3.34 4 2.68 4 2 4 C2 5.65 2 7.3 2 9 C0.35 9 -1.3 9 -3 9 C-3 9.66 -3 10.32 -3 11 C-3.66 11 -4.32 11 -5 11 C-5.33 10.34 -5.66 9.68 -6 9 C-6.99 9 -7.98 9 -9 9 C-9.66 7.02 -10.32 5.04 -11 3 C-10.01 3 -9.02 3 -8 3 C-7.67 4.32 -7.34 5.64 -7 7 C-4.58354218 7.16687448 -4.58354218 7.16687448 -2 7 C0.28728734 5.16116119 0.28728734 5.16116119 0.125 2.375 C0.08375 1.59125 0.0425 0.8075 0 0 Z " fill="#EAE8E9" transform="translate(27,20)"/>
<path d="M0 0 C3.3 0.33 6.6 0.66 10 1 C10.33 1.99 10.66 2.98 11 4 C7.37 4 3.74 4 0 4 C0 2.68 0 1.36 0 0 Z " fill="#93A0AD" transform="translate(14,10)"/>
<path d="M0 0 C0 0.66 0 1.32 0 2 C-0.99 2.33 -1.98 2.66 -3 3 C-3.73323796 5.01508358 -3.73323796 5.01508358 -4 7 C-3.34 7 -2.68 7 -2 7 C-2 7.66 -2 8.32 -2 9 C-3.32 8.67 -4.64 8.34 -6 8 C-6.6875 5.6875 -6.6875 5.6875 -7 3 C-4.87164172 -0.24854684 -4.06968429 0 0 0 Z " fill="#E7604F" transform="translate(11,4)"/>
<path d="M0 0 C0.66 0.33 1.32 0.66 2 1 C1.42655063 3.86724686 1.1385485 4.8614515 -1 7 C-3.625 6.625 -3.625 6.625 -6 6 C-6.33 4.68 -6.66 3.36 -7 2 C-6.34 2 -5.68 2 -5 2 C-4.67 2.66 -4.34 3.32 -4 4 C-3.01 3.67 -2.02 3.34 -1 3 C-0.67 2.01 -0.34 1.02 0 0 Z " fill="#EF5D4A" transform="translate(26,21)"/>
<path d="M0 0 C0.33 0.66 0.66 1.32 1 2 C-0.4375 4.625 -0.4375 4.625 -2 7 C-2.99 6.67 -3.98 6.34 -5 6 C-5 5.34 -5 4.68 -5 4 C-5.66 3.67 -6.32 3.34 -7 3 C-4.69 2.01 -2.38 1.02 0 0 Z " fill="#48586E" transform="translate(26,19)"/>
<path d="M0 0 C2.1875 0.3125 2.1875 0.3125 4 1 C2.35 2.98 0.7 4.96 -1 7 C-1.66 5.68 -2.32 4.36 -3 3 C-1.75 1.4375 -1.75 1.4375 0 0 Z " fill="#ECC25D" transform="translate(9,20)"/>
<path d="M0 0 C0.66 0.33 1.32 0.66 2 1 C0.6875 3.5 0.6875 3.5 -1 6 C-1.99 6 -2.98 6 -4 6 C-3.67 4.35 -3.34 2.7 -3 1 C-2.01 0.67 -1.02 0.34 0 0 Z " fill="#515E72" transform="translate(11,5)"/>
</svg>
